<?xml version="1.0" encoding="UTF-8" standalone="no"?>
<svg xmlns:dc="http://purl.org/dc/elements/1.1/" xmlns:cc="http://creativecommons.org/ns#" xmlns:rdf="http://www.w3.org/1999/02/22-rdf-syntax-ns#" xmlns:svg="http://www.w3.org/2000/svg" xmlns="http://www.w3.org/2000/svg" xmlns:sodipodi="http://sodipodi.sourceforge.net/DTD/sodipodi-0.dtd" xmlns:inkscape="http://www.inkscape.org/namespaces/inkscape" width="1000pt" height="1000pt" viewBox="0 0 1000 1000" version="1.1" id="svg3233" inkscape:version="0.48.4 r" sodipodi:docname="小瑠璃.svg">
  <metadata id="metadata3441">
    <rdf:RDF>
      <cc:Work rdf:about="">
        <dc:format>image/svg+xml</dc:format>
        <dc:type rdf:resource="http://purl.org/dc/dcmitype/StillImage"/>
      </cc:Work>
    </rdf:RDF>
  </metadata>
  <defs id="defs3439"/>
  <sodipodi:namedview pagecolor="#ffffff" bordercolor="#666666" borderopacity="1" objecttolerance="10" gridtolerance="10" guidetolerance="10" inkscape:pageopacity="0" inkscape:pageshadow="2" inkscape:window-width="1366" inkscape:window-height="705" id="namedview3437" showgrid="false" inkscape:zoom="0.4128" inkscape:cx="625" inkscape:cy="625" inkscape:window-x="-8" inkscape:window-y="-8" inkscape:window-maximized="1" inkscape:current-layer="svg3233"/>
  <path fill="#094bd6" d=" M 416.85 225.78 C 443.44 208.84 478.76 206.62 507.14 220.41 C 506.96 232.92 506.90 245.43 507.07 257.94 C 512.03 258.07 516.99 258.07 521.95 257.91 C 522.27 248.38 521.52 238.81 522.42 229.30 C 532.87 236.95 541.84 246.63 548.50 257.75 C 539.77 258.32 531.02 257.64 522.29 258.25 C 522.15 260.50 522.02 262.75 521.89 265.01 C 516.95 265.00 512.02 265.00 507.09 264.99 C 506.95 262.74 506.82 260.48 506.69 258.23 C 493.84 257.74 480.97 258.05 468.12 258.07 C 468.06 260.38 468.00 262.69 467.95 264.99 C 456.96 265.01 445.98 264.99 435.00 265.00 C 434.99 258.68 435.04 252.35 434.97 246.03 C 428.98 245.96 422.99 246.00 417.01 246.00 C 417.01 239.26 417.05 232.52 416.85 225.78 Z" id="path3237"/>
  <path fill="#2962db" d=" M 507.14 220.41 C 512.53 222.83 517.57 225.94 522.42 229.30 C 521.52 238.81 522.27 248.38 521.95 257.91 C 516.99 258.07 512.03 258.07 507.07 257.94 C 506.90 245.43 506.96 232.92 507.14 220.41 Z" id="path3239"/>
  <path fill="#2962db" d=" M 393.83 245.93 C 400.37 238.04 408.22 231.27 416.85 225.78 C 417.05 232.52 417.01 239.26 417.01 246.00 C 409.28 245.98 401.56 246.05 393.83 245.93 Z" id="path3241"/>
  <path fill="#002dcf" d=" M 385.08 258.34 C 387.65 253.97 390.60 249.84 393.83 245.93 C 401.56 246.05 409.28 245.98 417.01 246.00 C 416.99 252.34 417.00 258.67 417.00 265.00 C 405.18 264.95 393.35 265.12 381.53 264.86 C 382.67 262.66 383.81 260.47 385.08 258.34 Z" id="path3243"/>
  <path fill="#000fc8" d=" M 417.01 246.00 C 422.99 246.00 428.98 245.96 434.97 246.03 C 435.04 252.35 434.99 258.68 435.00 265.00 C 429.00 265.00 423.00 265.00 417.00 265.00 C 417.00 258.67 416.99 252.34 417.01 246.00 Z" id="path3245"/>
  <path fill="#b4ccff" d=" M 359.01 261.20 C 367.69 260.21 376.30 257.98 385.08 258.34 C 383.81 260.47 382.67 262.66 381.53 264.86 L 381.39 265.12 C 373.93 264.91 366.46 265.02 359.00 265.01 C 359.00 263.73 359.00 262.47 359.01 261.20 Z" id="path3247"/>
  <path fill="#0030d0" d=" M 468.12 258.07 C 480.97 258.05 493.84 257.74 506.69 258.23 C 506.82 260.48 506.95 262.74 507.09 264.99 C 494.04 264.99 480.99 264.99 467.95 264.99 C 468.00 262.69 468.06 260.38 468.12 258.07 Z" id="path3249"/>
  <path fill="#0030d0" d=" M 522.29 258.25 C 531.02 257.64 539.77 258.32 548.50 257.75 C 549.90 260.06 551.17 262.44 552.40 264.85 C 542.23 265.11 532.06 264.97 521.89 265.01 C 522.02 262.75 522.15 260.50 522.29 258.25 Z" id="path3251"/>
  <path fill="#4c86ff" d=" M 341.97 264.41 C 347.63 263.24 353.28 262.03 359.01 261.20 C 359.00 262.47 359.00 263.73 359.00 265.01 C 355.33 265.03 351.66 265.06 348.00 264.81 C 345.99 264.67 343.98 264.50 341.97 264.41 Z" id="path3253"/>
  <path fill="#c0f0ff" d=" M 311.86 280.85 C 321.14 274.18 330.77 267.35 341.97 264.41 C 343.98 264.50 345.99 264.67 348.00 264.81 C 348.05 279.28 347.94 293.76 347.97 308.23 C 335.42 305.52 323.90 299.56 311.94 295.09 C 312.01 290.34 311.98 285.60 311.86 280.85 Z" id="path3255"/>
  <path fill="#abebff" d=" M 348.00 264.81 C 351.66 265.06 355.33 265.03 359.00 265.01 C 358.96 280.04 359.08 295.07 358.96 310.11 C 358.20 310.11 356.69 310.12 355.94 310.13 C 353.24 309.84 350.62 309.15 347.97 308.61 L 347.97 308.23 C 347.94 293.76 348.05 279.28 348.00 264.81 Z" id="path3257"/>
  <path fill="#dcf7ff" d=" M 359.00 265.01 C 366.46 265.02 373.93 264.91 381.39 265.12 C 375.36 277.56 371.95 291.29 371.76 305.12 C 369.89 305.09 368.02 305.07 366.15 305.04 C 366.04 307.05 365.93 309.07 365.84 311.08 C 362.51 311.03 359.17 310.90 355.94 310.13 C 356.69 310.12 358.20 310.11 358.96 310.11 C 359.08 295.07 358.96 280.04 359.00 265.01 Z" id="path3259"/>
  <path fill="#0041fb" d=" M 381.39 265.12 L 381.53 264.86 C 393.35 265.12 405.18 264.95 417.00 265.00 C 417.00 278.34 416.98 291.67 417.01 305.00 C 401.92 305.09 386.84 304.84 371.76 305.12 C 371.95 291.29 375.36 277.56 381.39 265.12 Z" id="path3261"/>
  <path fill="#0025fb" d=" M 417.00 265.00 C 423.00 265.00 429.00 265.00 435.00 265.00 C 435.00 278.34 435.00 291.67 435.00 305.00 C 429.00 305.01 423.00 304.99 417.01 305.00 C 416.98 291.67 417.00 278.34 417.00 265.00 Z" id="path3263"/>
  <path fill="#105cfc" d=" M 435.00 265.00 C 445.98 264.99 456.96 265.01 467.95 264.99 C 468.11 278.33 467.93 291.66 468.00 305.00 C 457.00 305.03 446.00 304.98 435.00 305.00 C 435.00 291.67 435.00 278.34 435.00 265.00 Z" id="path3265"/>
  <path fill="#003df5" d=" M 467.95 264.99 C 480.99 264.99 494.04 264.99 507.09 264.99 C 506.88 278.32 507.07 291.65 506.99 304.98 C 494.00 305.07 481.00 304.92 468.00 305.00 C 467.93 291.66 468.11 278.33 467.95 264.99 Z" id="path3267"/>
  <path fill="#0a56f6" d=" M 507.09 264.99 C 512.02 265.00 516.95 265.00 521.89 265.01 C 522.12 278.31 521.94 291.62 522.00 304.92 C 517.00 305.02 511.99 305.01 506.99 304.98 C 507.07 291.65 506.88 278.32 507.09 264.99 Z" id="path3269"/>
  <path fill="#0037ef" d=" M 521.89 265.01 C 532.06 264.97 542.23 265.11 552.40 264.85 C 559.40 279.18 562.83 295.21 562.22 311.14 C 561.65 325.73 562.28 340.33 561.90 354.92 C 548.55 355.15 535.20 354.89 521.85 355.03 C 521.96 351.04 522.02 347.05 522.02 343.06 C 524.98 343.02 527.93 342.96 530.89 342.89 C 531.07 330.30 531.05 317.70 530.91 305.11 C 527.94 305.03 524.97 304.96 522.00 304.92 C 521.94 291.62 522.12 278.31 521.89 265.01 Z" id="path3271"/>
  <path fill="#d4ffff" d=" M 307.09 288.06 C 308.02 285.29 310.20 283.19 311.86 280.85 C 311.98 285.60 312.01 290.34 311.94 295.09 C 309.19 293.86 306.37 291.42 307.09 288.06 Z" id="path3273"/>
  <path fill="#0057ff" d=" M 371.76 305.12 C 386.84 304.84 401.92 305.09 417.01 305.00 C 417.00 317.67 416.99 330.34 417.02 343.01 C 404.19 343.05 391.37 342.89 378.54 343.08 C 373.70 331.05 371.51 318.06 371.76 305.12 Z" id="path3275"/>
  <path fill="#0031ff" d=" M 417.01 305.00 C 423.00 304.99 429.00 305.01 435.00 305.00 C 434.99 317.67 435.02 330.34 434.98 343.01 C 428.99 343.01 423.01 342.99 417.02 343.01 C 416.99 330.34 417.00 317.67 417.01 305.00 Z" id="path3277"/>
  <path fill="#157bff" d=" M 435.00 305.00 C 446.00 304.98 457.00 305.03 468.00 305.00 C 468.00 317.66 467.98 330.33 468.02 342.99 C 457.01 343.02 445.99 342.97 434.98 343.01 C 435.02 330.34 434.99 317.67 435.00 305.00 Z" id="path3279"/>
  <path fill="#0051ff" d=" M 468.00 305.00 C 481.00 304.92 494.00 305.07 506.99 304.98 C 506.96 317.66 507.05 330.34 506.96 343.02 C 493.98 343.00 481.00 342.99 468.02 342.99 C 467.98 330.33 468.00 317.66 468.00 305.00 Z" id="path3281"/>
  <path fill="#0d73ff" d=" M 506.99 304.98 C 511.99 305.01 517.00 305.02 522.00 304.92 C 521.99 317.64 521.98 330.35 522.02 343.06 C 517.00 342.97 511.98 342.98 506.96 343.02 C 507.05 330.34 506.96 317.66 506.99 304.98 Z" id="path3283"/>
  <path fill="#0049ff" d=" M 522.00 304.92 C 524.97 304.96 527.94 305.03 530.91 305.11 C 531.05 317.70 531.07 330.30 530.89 342.89 C 527.93 342.96 524.98 343.02 522.02 343.06 C 521.98 330.35 521.99 317.64 522.00 304.92 Z" id="path3285"/>
  <path fill="#0030d0" d=" M 562.22 311.14 C 563.74 312.46 565.12 313.94 566.30 315.58 C 565.50 329.98 566.41 344.41 565.78 358.81 C 558.53 359.22 551.27 358.95 544.01 358.98 C 536.83 358.96 529.64 359.27 522.47 358.72 C 522.26 357.49 522.05 356.26 521.85 355.03 C 535.20 354.89 548.55 355.15 561.90 354.92 C 562.28 340.33 561.65 325.73 562.22 311.14 Z" id="path3287"/>
  <path fill="#094bd6" d=" M 566.30 315.58 C 575.15 328.40 584.26 341.03 593.18 353.79 C 594.29 355.48 595.39 357.18 596.47 358.91 C 586.34 359.16 576.21 358.87 566.08 359.04 C 565.88 381.36 566.05 403.68 566.00 426.01 C 555.81 426.04 545.63 425.88 535.45 426.18 C 535.18 426.06 534.65 425.82 534.39 425.69 C 530.42 423.46 526.27 421.57 521.94 420.17 C 522.02 399.82 522.08 379.45 521.93 359.10 C 516.97 358.91 512.01 358.90 507.06 359.06 C 506.86 378.43 507.14 397.79 506.94 417.16 C 506.16 417.19 504.61 417.25 503.84 417.28 C 498.90 417.00 493.96 416.74 489.02 416.70 C 489.04 412.47 489.01 408.25 488.94 404.03 C 484.81 403.95 480.67 403.99 476.55 404.18 L 476.38 403.81 C 473.83 398.02 471.02 392.35 468.16 386.71 C 468.06 386.39 467.85 385.75 467.74 385.43 C 468.07 376.64 468.10 367.84 467.92 359.04 C 451.09 358.87 434.25 359.17 417.41 358.93 C 417.23 358.18 416.86 356.70 416.67 355.96 C 422.87 356.03 429.13 356.56 435.27 355.41 C 446.10 354.45 457.01 355.26 467.88 355.02 C 468.07 356.26 468.27 357.52 468.47 358.77 C 481.14 359.19 493.84 359.16 506.52 358.77 C 506.73 357.52 506.95 356.27 507.17 355.03 C 512.06 355.00 516.95 355.01 521.85 355.03 C 522.05 356.26 522.26 357.49 522.47 358.72 C 529.64 359.27 536.83 358.96 544.01 358.98 C 551.27 358.95 558.53 359.22 565.78 358.81 C 566.41 344.41 565.50 329.98 566.30 315.58 Z" id="path3289"/>
  <path fill="#0041fb" d=" M 378.54 343.08 C 391.37 342.89 404.19 343.05 417.02 343.01 C 417.00 347.01 416.98 351.01 416.97 355.02 C 406.07 355.33 395.15 354.58 384.28 355.49 C 382.53 351.28 380.27 347.30 378.54 343.08 Z" id="path3291"/>
  <path fill="#0025fb" d=" M 417.02 343.01 C 423.01 342.99 428.99 343.01 434.98 343.01 C 434.93 347.15 435.02 351.28 435.27 355.41 C 429.19 354.68 423.07 355.00 416.97 355.02 C 416.98 351.01 417.00 347.01 417.02 343.01 Z" id="path3293"/>
  <path fill="#105cfc" d=" M 434.98 343.01 C 445.99 342.97 457.01 343.02 468.02 342.99 C 468.02 347.00 467.97 351.01 467.88 355.02 C 457.01 355.26 446.10 354.45 435.27 355.41 C 435.02 351.28 434.93 347.15 434.98 343.01 Z" id="path3295"/>
  <path fill="#003df5" d=" M 468.02 342.99 C 481.00 342.99 493.98 343.00 506.96 343.02 C 506.97 347.02 507.04 351.02 507.17 355.03 C 494.07 354.99 480.98 354.98 467.88 355.02 C 467.97 351.01 468.02 347.00 468.02 342.99 Z" id="path3297"/>
  <path fill="#0a56f6" d=" M 506.96 343.02 C 511.98 342.98 517.00 342.97 522.02 343.06 C 522.02 347.05 521.96 351.04 521.85 355.03 C 516.95 355.01 512.06 355.00 507.17 355.03 C 507.04 351.02 506.97 347.02 506.96 343.02 Z" id="path3299"/>
  <path fill="#5a8eff" d=" M 593.18 353.79 C 594.96 354.11 596.95 354.30 598.19 355.82 C 609.99 368.03 622.00 380.15 632.28 393.71 C 641.66 406.31 648.80 420.63 652.49 435.93 C 656.22 450.68 657.65 465.88 658.48 481.03 C 647.29 480.99 636.11 480.99 624.92 481.02 C 627.86 458.53 629.73 435.26 623.81 413.08 C 618.59 393.30 607.25 376.02 596.47 358.91 C 595.39 357.18 594.29 355.48 593.18 353.79 Z" id="path3301"/>
  <path fill="#0022cc" d=" M 384.28 355.49 C 395.15 354.58 406.07 355.33 416.97 355.02 C 423.07 355.00 429.19 354.68 435.27 355.41 C 429.13 356.56 422.87 356.03 416.67 355.96 C 406.15 355.62 395.58 356.35 385.08 355.63 L 384.28 355.49 Z" id="path3303"/>
  <path fill="#0030d0" d=" M 467.88 355.02 C 480.98 354.98 494.07 354.99 507.17 355.03 C 506.95 356.27 506.73 357.52 506.52 358.77 C 493.84 359.16 481.14 359.19 468.47 358.77 C 468.27 357.52 468.07 356.26 467.88 355.02 Z" id="path3305"/>
  <path fill="#2962db" d=" M 385.08 355.63 C 395.58 356.35 406.15 355.62 416.67 355.96 C 416.86 356.70 417.23 358.18 417.41 358.93 C 434.25 359.17 451.09 358.87 467.92 359.04 C 468.10 367.84 468.07 376.64 467.74 385.43 C 463.10 377.40 457.96 368.62 448.99 364.90 C 442.34 362.27 435.15 360.44 427.95 361.00 C 424.79 361.20 421.61 361.09 418.48 360.66 C 413.30 358.26 407.52 359.17 402.02 359.06 C 396.94 359.01 391.86 359.00 386.79 359.14 C 386.20 357.98 385.62 356.81 385.08 355.63 Z" id="path3307"/>
  <path fill="#4576e0" d=" M 386.79 359.14 C 391.86 359.00 396.94 359.01 402.02 359.06 C 407.52 359.17 413.30 358.26 418.48 360.66 L 417.03 360.55 C 411.90 360.52 406.63 359.22 401.60 360.55 C 398.04 362.63 397.14 367.11 395.43 370.58 C 392.26 366.99 389.57 363.02 386.79 359.14 Z" id="path3309"/>
  <path fill="#2962db" d=" M 507.06 359.06 C 512.01 358.90 516.97 358.91 521.93 359.10 C 522.08 379.45 522.02 399.82 521.94 420.17 C 517.00 419.06 512.02 418.11 506.99 417.60 C 505.93 417.47 504.88 417.36 503.84 417.28 C 504.61 417.25 506.16 417.19 506.94 417.16 C 507.14 397.79 506.86 378.43 507.06 359.06 Z" id="path3311"/>
  <path fill="#2962db" d=" M 566.08 359.04 C 576.21 358.87 586.34 359.16 596.47 358.91 C 607.25 376.02 618.59 393.30 623.81 413.08 C 629.73 435.26 627.86 458.53 624.92 481.02 C 619.95 481.00 614.98 480.99 610.01 481.00 C 609.91 462.69 610.15 444.39 609.90 426.08 C 595.27 425.86 580.63 426.06 566.00 426.01 C 566.05 403.68 565.88 381.36 566.08 359.04 Z" id="path3313"/>
  <path fill="#6f9dff" d=" M 401.60 360.55 C 406.63 359.22 411.90 360.52 417.03 360.55 C 416.98 382.36 416.99 404.18 417.02 425.99 C 402.91 426.04 388.80 425.97 374.69 426.02 C 379.20 406.73 387.81 388.77 395.43 370.58 C 397.14 367.11 398.04 362.63 401.60 360.55 Z" id="path3315"/>
  <path fill="#5a8eff" d=" M 417.03 360.55 L 418.48 360.66 C 421.61 361.09 424.79 361.20 427.95 361.00 C 435.15 360.44 442.34 362.27 448.99 364.90 C 457.96 368.62 463.10 377.40 467.74 385.43 C 467.85 385.75 468.06 386.39 468.16 386.71 C 468.09 392.49 467.90 398.27 468.00 404.05 C 461.33 403.97 454.67 403.95 448.02 404.05 C 447.95 411.36 448.02 418.68 448.00 426.00 C 437.67 426.01 427.35 426.00 417.02 425.99 C 416.99 404.18 416.98 382.36 417.03 360.55 Z" id="path3317"/>
  <path fill="#417dff" d=" M 468.16 386.71 C 471.02 392.35 473.83 398.02 476.38 403.81 C 473.58 403.90 470.79 403.98 468.00 404.05 C 467.90 398.27 468.09 392.49 468.16 386.71 Z" id="path3319"/>
  <path fill="#78beff" d=" M 448.02 404.05 C 454.67 403.95 461.33 403.97 468.00 404.05 C 468.00 411.36 468.02 418.68 468.00 426.00 C 461.33 426.00 454.66 426.00 448.00 426.00 C 448.02 418.68 447.95 411.36 448.02 404.05 Z" id="path3321"/>
  <path fill="#57a7ff" d=" M 468.00 404.05 C 470.79 403.98 473.58 403.90 476.38 403.81 L 476.55 404.18 C 478.43 408.32 480.30 412.46 482.27 416.56 C 484.52 416.60 486.76 416.65 489.02 416.70 C 489.00 419.80 488.99 422.89 488.99 425.99 C 481.99 426.01 474.99 426.00 468.00 426.00 C 468.02 418.68 468.00 411.36 468.00 404.05 Z" id="path3323"/>
  <path fill="#0c64ff" d=" M 476.55 404.18 C 480.67 403.99 484.81 403.95 488.94 404.03 C 489.01 408.25 489.04 412.47 489.02 416.70 C 486.76 416.65 484.52 416.60 482.27 416.56 C 480.30 412.46 478.43 408.32 476.55 404.18 Z" id="path3325"/>
  <path fill="#417dff" d=" M 489.02 416.70 C 493.96 416.74 498.90 417.00 503.84 417.28 C 504.88 417.36 505.93 417.47 506.99 417.60 C 506.99 420.39 507.00 423.20 507.02 426.00 C 501.01 426.00 495.00 426.00 488.99 425.99 C 488.99 422.89 489.00 419.80 489.02 416.70 Z" id="path3327"/>
  <path fill="#5a8eff" d=" M 506.99 417.60 C 512.02 418.11 517.00 419.06 521.94 420.17 C 521.95 422.12 521.97 424.08 522.00 426.04 C 517.01 425.97 512.01 425.99 507.02 426.00 C 507.00 423.20 506.99 420.39 506.99 417.60 Z" id="path3329"/>
  <path fill="#417dff" d=" M 521.94 420.17 C 526.27 421.57 530.42 423.46 534.39 425.69 C 530.25 425.81 526.13 426.04 522.00 426.04 C 521.97 424.08 521.95 422.12 521.94 420.17 Z" id="path3331"/>
  <path fill="#80b4ff" d=" M 374.69 426.02 C 388.80 425.97 402.91 426.04 417.02 425.99 C 417.03 439.27 416.85 452.56 417.10 465.84 C 427.40 466.24 437.70 465.89 448.00 466.00 C 448.00 473.33 448.00 480.66 448.00 488.00 C 432.68 488.05 417.36 487.92 402.04 488.04 C 401.93 494.53 402.11 501.02 401.88 507.51 C 400.72 507.94 399.57 508.37 398.43 508.81 C 392.85 498.84 387.25 488.87 382.30 478.57 C 376.65 466.18 372.20 452.80 372.95 439.01 C 373.13 434.63 373.93 430.32 374.69 426.02 Z" id="path3333"/>
  <path fill="#6da9ff" d=" M 417.02 425.99 C 427.35 426.00 437.67 426.01 448.00 426.00 C 448.00 439.33 448.00 452.66 448.00 466.00 C 437.70 465.89 427.40 466.24 417.10 465.84 C 416.85 452.56 417.03 439.27 417.02 425.99 Z" id="path3335"/>
  <path fill="#92e2ff" d=" M 448.00 426.00 C 454.66 426.00 461.33 426.00 468.00 426.00 C 468.11 439.31 467.83 452.63 468.10 465.94 C 475.06 466.09 482.03 465.97 489.00 465.99 C 489.00 480.00 489.00 494.00 489.00 508.00 C 482.67 507.99 476.34 508.03 470.02 507.98 C 469.94 502.99 470.02 498.00 470.07 493.02 C 469.99 491.03 470.42 488.50 468.15 487.55 C 467.80 480.45 468.33 473.33 467.70 466.24 C 461.14 465.81 454.56 466.00 448.00 466.00 C 448.00 452.66 448.00 439.33 448.00 426.00 Z" id="path3337"/>
  <path fill="#74d0ff" d=" M 468.00 426.00 C 474.99 426.00 481.99 426.01 488.99 425.99 C 489.01 439.33 488.99 452.66 489.00 465.99 C 482.03 465.97 475.06 466.09 468.10 465.94 C 467.83 452.63 468.11 439.31 468.00 426.00 Z" id="path3339"/>
  <path fill="#579cff" d=" M 488.99 425.99 C 495.00 426.00 501.01 426.00 507.02 426.00 C 506.91 439.30 507.15 452.60 506.92 465.90 C 500.95 466.09 494.97 466.03 489.00 465.99 C 488.99 452.66 489.01 439.33 488.99 425.99 Z" id="path3341"/>
  <path fill="#6da9ff" d=" M 507.02 426.00 C 512.01 425.99 517.01 425.97 522.00 426.04 C 522.08 444.33 521.87 462.62 522.07 480.90 C 536.50 481.13 550.94 480.92 565.38 481.02 C 565.77 482.54 566.19 484.06 566.55 485.61 C 565.59 496.25 565.89 506.97 566.27 517.63 C 568.60 517.83 570.94 518.03 573.28 518.23 C 573.47 519.18 573.65 520.13 573.84 521.09 C 576.25 535.71 578.57 550.34 580.68 565.00 L 580.75 565.46 C 575.85 564.95 570.93 564.86 566.02 565.00 C 565.88 549.36 566.22 533.72 565.88 518.08 C 546.93 517.86 527.97 518.09 509.01 518.01 C 509.01 514.68 509.00 511.36 508.97 508.04 C 502.31 507.94 495.65 508.01 489.00 508.00 C 489.00 494.00 489.00 480.00 489.00 465.99 C 494.97 466.03 500.95 466.09 506.92 465.90 C 507.15 452.60 506.91 439.30 507.02 426.00 Z" id="path3343"/>
  <path fill="#5095ff" d=" M 522.00 426.04 C 526.13 426.04 530.25 425.81 534.39 425.69 C 534.65 425.82 535.18 426.06 535.45 426.18 C 546.64 433.93 553.82 446.02 558.52 458.55 C 561.22 465.73 563.48 473.07 565.38 480.50 L 565.38 481.02 C 550.94 480.92 536.50 481.13 522.07 480.90 C 521.87 462.62 522.08 444.33 522.00 426.04 Z" id="path3345"/>
  <path fill="#105cfc" d=" M 535.45 426.18 C 545.63 425.88 555.81 426.04 566.00 426.01 C 566.03 441.03 565.94 456.05 566.06 471.07 C 566.07 474.22 565.68 477.36 565.38 480.50 C 563.48 473.07 561.22 465.73 558.52 458.55 C 553.82 446.02 546.64 433.93 535.45 426.18 Z" id="path3347"/>
  <path fill="#2f71fc" d=" M 566.00 426.01 C 580.63 426.06 595.27 425.86 609.90 426.08 C 610.15 444.39 609.91 462.69 610.01 481.00 C 595.13 481.02 580.25 480.97 565.38 481.02 L 565.38 480.50 C 565.68 477.36 566.07 474.22 566.06 471.07 C 565.94 456.05 566.03 441.03 566.00 426.01 Z" id="path3349"/>
  <path fill="#abf0ff" d=" M 448.00 466.00 C 454.56 466.00 461.14 465.81 467.70 466.24 C 468.33 473.33 467.80 480.45 468.15 487.55 C 461.47 488.40 454.72 487.87 448.00 488.00 C 448.00 480.66 448.00 473.33 448.00 466.00 Z" id="path3351"/>
  <path fill="#e7ffff" d=" M 382.30 478.57 C 387.25 488.87 392.85 498.84 398.43 508.81 C 399.49 510.68 400.58 512.54 401.66 514.41 C 401.83 514.71 402.18 515.32 402.36 515.63 C 401.59 530.83 402.22 546.07 401.96 561.29 C 394.42 549.08 391.32 534.80 388.31 520.93 C 386.46 513.04 385.72 504.96 384.27 497.00 C 383.49 490.87 381.95 484.78 382.30 478.57 Z" id="path3353"/>
  <path fill="#4f88ff" d=" M 565.38 481.02 C 580.25 480.97 595.13 481.02 610.01 481.00 C 610.00 493.34 610.01 505.67 610.00 518.01 C 597.96 518.03 585.93 517.88 573.90 518.08 C 573.88 518.83 573.85 520.34 573.84 521.09 C 573.65 520.13 573.47 519.18 573.28 518.23 C 571.29 507.31 569.34 496.36 566.55 485.61 C 566.19 484.06 565.77 482.54 565.38 481.02 Z" id="path3355"/>
  <path fill="#4576e0" d=" M 610.01 481.00 C 614.98 480.99 619.95 481.00 624.92 481.02 C 623.49 492.88 621.55 504.67 619.37 516.42 L 619.14 517.92 C 616.09 517.96 613.04 517.99 610.00 518.01 C 610.01 505.67 610.00 493.34 610.01 481.00 Z" id="path3357"/>
  <path fill="#6f9dff" d=" M 624.92 481.02 C 636.11 480.99 647.29 480.99 658.48 481.03 C 659.69 508.37 658.83 535.75 657.84 563.08 C 656.02 608.12 653.37 653.13 650.88 698.14 C 650.23 702.75 644.10 704.50 640.81 701.37 C 641.21 677.26 640.91 653.15 640.99 629.04 C 640.97 607.74 641.10 586.44 640.93 565.14 C 634.28 564.88 627.63 565.02 620.98 565.00 C 621.01 551.34 620.96 537.69 621.08 524.03 C 621.16 521.38 620.43 518.82 619.37 516.42 C 621.55 504.67 623.49 492.88 624.92 481.02 Z" id="path3359"/>
  <path fill="#80b4ff" d=" M 566.27 517.63 C 565.89 506.97 565.59 496.25 566.55 485.61 C 569.34 496.36 571.29 507.31 573.28 518.23 C 570.94 518.03 568.60 517.83 566.27 517.63 Z" id="path3361"/>
  <path fill="#559bff" d=" M 402.04 488.04 C 417.36 487.92 432.68 488.05 448.00 488.00 C 448.00 494.66 447.99 501.33 448.00 508.00 C 432.72 508.01 417.44 507.98 402.16 508.00 C 401.99 510.13 401.83 512.27 401.66 514.41 C 400.58 512.54 399.49 510.68 398.43 508.81 C 399.57 508.37 400.72 507.94 401.88 507.51 C 402.11 501.02 401.93 494.53 402.04 488.04 Z" id="path3363"/>
  <path fill="#71cfff" d=" M 448.00 488.00 C 454.72 487.87 461.47 488.40 468.15 487.55 C 467.91 494.23 467.91 500.92 468.13 507.60 C 461.45 508.38 454.71 507.87 448.00 508.00 C 447.99 501.33 448.00 494.66 448.00 488.00 Z" id="path3365"/>
  <path fill="#50bbff" d=" M 468.15 487.55 C 470.42 488.50 469.99 491.03 470.07 493.02 C 470.02 498.00 469.94 502.99 470.02 507.98 C 476.34 508.03 482.67 507.99 489.00 508.00 C 489.00 511.31 489.00 514.62 489.01 517.93 C 487.35 517.98 485.70 518.04 484.05 518.10 C 483.91 537.75 484.05 557.41 484.00 577.06 C 479.34 577.05 474.67 576.93 470.03 577.43 C 469.97 555.26 470.01 533.08 470.02 510.90 C 470.22 509.36 469.58 508.15 468.13 507.60 C 467.91 500.92 467.91 494.23 468.15 487.55 Z" id="path3367"/>
  <path fill="#1c79ff" d=" M 402.16 508.00 C 417.44 507.98 432.72 508.01 448.00 508.00 C 447.85 530.23 448.28 552.48 447.78 574.70 C 437.76 563.14 428.50 550.97 418.99 539.00 C 413.19 531.38 406.52 524.35 402.36 515.63 C 402.18 515.32 401.83 514.71 401.66 514.41 C 401.83 512.27 401.99 510.13 402.16 508.00 Z" id="path3369"/>
  <path fill="#25a2ff" d=" M 448.00 508.00 C 454.71 507.87 461.45 508.38 468.13 507.60 C 467.78 530.70 468.16 553.80 467.94 576.90 C 462.02 576.94 456.07 576.61 450.20 577.61 L 450.11 577.62 C 449.33 576.64 448.56 575.66 447.78 574.70 C 448.28 552.48 447.85 530.23 448.00 508.00 Z" id="path3371"/>
  <path fill="#0385ff" d=" M 468.13 507.60 C 469.58 508.15 470.22 509.36 470.02 510.90 C 470.01 533.08 469.97 555.26 470.03 577.43 C 469.61 577.47 468.78 577.53 468.37 577.56 C 462.32 577.94 456.25 577.80 450.20 577.61 C 456.07 576.61 462.02 576.94 467.94 576.90 C 468.16 553.80 467.78 530.70 468.13 507.60 Z" id="path3373"/>
  <path fill="#3c8cff" d=" M 489.00 508.00 C 495.65 508.01 502.31 507.94 508.97 508.04 C 509.00 511.36 509.01 514.68 509.01 518.01 C 502.34 517.99 495.68 518.03 489.01 517.93 C 489.00 514.62 489.00 511.31 489.00 508.00 Z" id="path3375"/>
  <path fill="#dfffff" d=" M 402.36 515.63 C 406.52 524.35 413.19 531.38 418.99 539.00 C 428.50 550.97 437.76 563.14 447.78 574.70 C 448.56 575.66 449.33 576.64 450.11 577.62 C 438.33 578.51 426.51 577.64 414.72 578.08 C 409.83 573.06 404.93 567.69 401.96 561.29 C 402.22 546.07 401.59 530.83 402.36 515.63 Z" id="path3377"/>
  <path fill="#5a8eff" d=" M 619.37 516.42 C 620.43 518.82 621.16 521.38 621.08 524.03 C 620.96 537.69 621.01 551.34 620.98 565.00 C 617.53 565.00 614.09 565.03 610.65 565.09 L 610.63 564.50 C 613.61 549.00 616.71 533.52 619.14 517.92 L 619.37 516.42 Z" id="path3379"/>
  <path fill="#29a4ff" d=" M 484.05 518.10 C 485.70 518.04 487.35 517.98 489.01 517.93 C 488.92 537.60 489.12 557.28 488.93 576.95 C 487.28 576.99 485.64 577.03 484.00 577.06 C 484.05 557.41 483.91 537.75 484.05 518.10 Z" id="path3381"/>
  <path fill="#1f7bff" d=" M 489.01 517.93 C 495.68 518.03 502.34 517.99 509.01 518.01 C 508.96 538.00 509.05 557.98 508.97 577.97 C 500.65 577.98 492.32 578.15 483.99 577.84 C 479.22 577.58 474.44 577.62 469.67 577.90 C 469.59 585.35 469.59 592.80 469.69 600.25 C 469.21 599.70 468.73 599.15 468.26 598.62 C 468.69 591.61 468.60 584.58 468.37 577.56 C 468.78 577.53 469.61 577.47 470.03 577.43 C 474.67 576.93 479.34 577.05 484.00 577.06 C 485.64 577.03 487.28 576.99 488.93 576.95 C 489.12 557.28 488.92 537.60 489.01 517.93 Z" id="path3383"/>
  <path fill="#579cff" d=" M 509.01 518.01 C 527.97 518.09 546.93 517.86 565.88 518.08 C 566.22 533.72 565.88 549.36 566.02 565.00 C 555.36 565.05 544.71 564.89 534.05 565.07 C 533.97 579.03 533.94 593.00 534.06 606.96 C 544.71 607.08 555.36 606.95 566.01 607.01 C 565.95 614.64 566.20 622.27 565.88 629.89 C 555.25 630.16 544.63 629.93 534.00 630.00 C 533.95 622.39 534.17 614.78 533.83 607.18 C 517.19 606.85 500.55 606.96 483.91 607.08 C 483.82 610.07 483.75 613.06 483.69 616.05 L 483.51 615.84 C 481.16 613.05 478.71 610.34 476.27 607.64 C 478.75 607.24 481.24 606.86 483.74 606.48 C 484.29 596.94 483.90 587.38 483.99 577.84 C 492.32 578.15 500.65 577.98 508.97 577.97 C 509.05 557.98 508.96 538.00 509.01 518.01 Z" id="path3385"/>
  <path fill="#3576ff" d=" M 573.90 518.08 C 585.93 517.88 597.96 518.03 610.00 518.01 C 609.98 530.33 610.07 542.65 609.94 554.97 C 609.90 558.16 610.29 561.33 610.63 564.50 L 610.65 565.09 C 600.66 564.91 590.67 565.04 580.68 565.00 C 578.57 550.34 576.25 535.71 573.84 521.09 C 573.85 520.34 573.88 518.83 573.90 518.08 Z" id="path3387"/>
  <path fill="#2962db" d=" M 610.00 518.01 C 613.04 517.99 616.09 517.96 619.14 517.92 C 616.71 533.52 613.61 549.00 610.63 564.50 C 610.29 561.33 609.90 558.16 609.94 554.97 C 610.07 542.65 609.98 530.33 610.00 518.01 Z" id="path3389"/>
  <path fill="#71c0ff" d=" M 534.05 565.07 C 544.71 564.89 555.36 565.05 566.02 565.00 C 565.95 579.00 566.02 593.00 566.01 607.01 C 555.36 606.95 544.71 607.08 534.06 606.96 C 533.94 593.00 533.97 579.03 534.05 565.07 Z" id="path3391"/>
  <path fill="#83c8ff" d=" M 566.02 565.00 C 570.93 564.86 575.85 564.95 580.75 565.46 C 582.57 579.32 584.49 593.17 586.29 607.04 C 579.53 607.00 572.77 607.00 566.01 607.01 C 566.02 593.00 565.95 579.00 566.02 565.00 Z" id="path3393"/>
  <path fill="#438dff" d=" M 580.68 565.00 C 590.67 565.04 600.66 564.91 610.65 565.09 C 610.19 567.17 609.71 569.25 609.34 571.35 C 607.11 582.55 604.95 593.78 602.62 604.96 C 602.55 605.47 602.40 606.48 602.33 606.99 C 597.22 606.92 592.12 606.97 587.02 607.10 C 586.94 607.86 586.79 609.39 586.71 610.15 C 586.57 609.11 586.43 608.07 586.29 607.04 C 584.49 593.17 582.57 579.32 580.75 565.46 L 580.68 565.00 Z" id="path3395"/>
  <path fill="#6da9ff" d=" M 610.65 565.09 C 614.09 565.03 617.53 565.00 620.98 565.00 C 621.05 593.33 620.96 621.66 620.99 649.99 C 620.90 659.22 621.40 668.48 620.51 677.70 C 611.43 663.78 608.72 647.02 605.88 630.96 C 604.68 623.95 603.67 616.91 602.49 609.90 C 602.40 608.92 602.34 607.95 602.33 606.99 C 602.40 606.48 602.55 605.47 602.62 604.96 C 602.79 605.43 603.11 606.37 603.28 606.84 C 605.49 606.98 607.71 607.01 609.94 607.06 C 609.77 595.16 610.68 583.20 609.34 571.35 C 609.71 569.25 610.19 567.17 610.65 565.09 Z" id="path3397"/>
  <path fill="#80b4ff" d=" M 620.98 565.00 C 627.63 565.02 634.28 564.88 640.93 565.14 C 641.10 586.44 640.97 607.74 640.99 629.04 C 640.91 653.15 641.21 677.26 640.81 701.37 C 633.94 693.58 626.10 686.52 620.51 677.70 C 621.40 668.48 620.90 659.22 620.99 649.99 C 620.96 621.66 621.05 593.33 620.98 565.00 Z" id="path3399"/>
  <path fill="#83c8ff" d=" M 609.34 571.35 C 610.68 583.20 609.77 595.16 609.94 607.06 C 607.71 607.01 605.49 606.98 603.28 606.84 C 603.11 606.37 602.79 605.43 602.62 604.96 C 604.95 593.78 607.11 582.55 609.34 571.35 Z" id="path3401"/>
  <path fill="#e7ffff" d=" M 414.72 578.08 C 426.51 577.64 438.33 578.51 450.11 577.62 L 450.20 577.61 C 456.04 584.76 462.11 591.72 468.26 598.62 C 468.73 599.15 469.21 599.70 469.69 600.25 C 471.59 602.42 473.51 604.58 475.45 606.73 C 471.09 606.87 466.73 607.16 462.36 607.11 C 445.53 599.25 428.37 590.99 414.72 578.08 Z" id="path3403"/>
  <path fill="#559bff" d=" M 450.20 577.61 C 456.25 577.80 462.32 577.94 468.37 577.56 C 468.60 584.58 468.69 591.61 468.26 598.62 C 462.11 591.72 456.04 584.76 450.20 577.61 Z" id="path3405"/>
  <path fill="#6da9ff" d=" M 469.67 577.90 C 474.44 577.62 479.22 577.58 483.99 577.84 C 483.90 587.38 484.29 596.94 483.74 606.48 C 481.24 606.86 478.75 607.24 476.27 607.64 C 475.99 607.33 475.72 607.03 475.45 606.73 C 473.51 604.58 471.59 602.42 469.69 600.25 C 469.59 592.80 469.59 585.35 469.67 577.90 Z" id="path3407"/>
  <path fill="#c7d9ff" d=" M 475.45 606.73 C 475.72 607.03 475.99 607.33 476.27 607.64 C 478.71 610.34 481.16 613.05 483.51 615.84 C 481.48 615.70 479.51 615.13 477.69 614.23 C 472.61 611.78 467.25 609.95 462.36 607.11 C 466.73 607.16 471.09 606.87 475.45 606.73 Z" id="path3409"/>
  <path fill="#417dff" d=" M 483.91 607.08 C 500.55 606.96 517.19 606.85 533.83 607.18 C 534.17 614.78 533.95 622.39 534.00 630.00 C 521.62 630.12 509.23 629.82 496.85 630.14 C 495.63 628.84 494.41 627.55 493.20 626.25 C 490.07 622.81 487.03 619.29 483.69 616.05 C 483.75 613.06 483.82 610.07 483.91 607.08 Z" id="path3411"/>
  <path fill="#6da9ff" d=" M 566.01 607.01 C 572.77 607.00 579.53 607.00 586.29 607.04 C 586.43 608.07 586.57 609.11 586.71 610.15 C 588.40 622.08 589.22 634.16 591.67 645.98 C 591.95 654.41 593.35 662.74 594.31 671.12 C 596.29 687.74 598.47 704.35 600.32 720.99 C 600.76 726.11 595.42 729.04 590.89 728.50 C 591.05 715.02 591.06 701.54 590.95 688.06 C 577.71 688.15 564.44 687.54 551.22 688.42 C 550.94 688.13 550.67 687.85 550.41 687.57 C 545.00 681.66 539.38 675.94 534.05 669.96 L 533.64 669.51 C 534.43 656.35 533.79 643.16 534.00 630.00 C 544.63 629.93 555.25 630.16 565.88 629.89 C 566.20 622.27 565.95 614.64 566.01 607.01 Z" id="path3413"/>
  <path fill="#3576ff" d=" M 587.02 607.10 C 592.12 606.97 597.22 606.92 602.33 606.99 C 602.34 607.95 602.40 608.92 602.49 609.90 C 600.80 613.77 600.32 618.11 597.71 621.56 C 594.64 629.38 593.10 637.72 591.67 645.98 C 589.22 634.16 588.40 622.08 586.71 610.15 C 586.79 609.39 586.94 607.86 587.02 607.10 Z" id="path3415"/>
  <path fill="#c7d9ff" d=" M 493.20 626.25 C 494.41 627.55 495.63 628.84 496.85 630.14 C 506.32 640.65 516.36 650.67 525.57 661.40 C 525.70 662.17 525.96 663.70 526.09 664.46 C 524.79 666.11 523.16 667.74 522.99 669.97 C 522.07 675.82 521.56 681.73 520.70 687.59 C 520.68 687.69 520.65 687.89 520.64 688.00 C 517.89 688.00 515.15 688.01 512.40 688.05 C 512.52 688.57 512.74 689.61 512.85 690.13 C 512.66 689.60 512.28 688.54 512.09 688.01 C 510.25 683.06 508.74 678.01 507.00 673.03 C 506.34 670.93 504.96 668.87 502.73 668.26 C 500.47 667.41 498.28 668.73 496.38 669.81 C 494.89 657.25 493.63 644.66 492.17 632.10 C 491.78 630.06 492.24 628.06 493.20 626.25 Z" id="path3417"/>
  <path fill="#5a8eff" d=" M 496.85 630.14 C 509.23 629.82 521.62 630.12 534.00 630.00 C 533.79 643.16 534.43 656.35 533.64 669.51 C 531.09 666.66 528.24 664.11 525.57 661.40 C 516.36 650.67 506.32 640.65 496.85 630.14 Z" id="path3419"/>
  <path fill="#2962db" d=" M 525.57 661.40 C 528.24 664.11 531.09 666.66 533.64 669.51 L 534.05 669.96 C 534.02 675.95 534.05 681.95 533.91 687.94 C 529.50 688.13 525.08 688.05 520.70 687.59 C 521.56 681.73 522.07 675.82 522.99 669.97 C 523.16 667.74 524.79 666.11 526.09 664.46 C 525.96 663.70 525.70 662.17 525.57 661.40 Z" id="path3421"/>
  <path fill="#2962db" d=" M 496.38 669.81 C 498.28 668.73 500.47 667.41 502.73 668.26 C 504.96 668.87 506.34 670.93 507.00 673.03 C 508.74 678.01 510.25 683.06 512.09 688.01 C 506.53 687.97 500.97 687.97 495.41 688.05 C 495.01 681.95 495.98 675.87 496.38 669.81 Z" id="path3423"/>
  <path fill="#3576ff" d=" M 534.05 669.96 C 539.38 675.94 545.00 681.66 550.41 687.57 C 545.03 687.95 539.64 688.04 534.25 688.27 C 533.67 704.16 534.16 720.08 533.99 735.98 C 533.99 756.32 534.00 776.65 534.00 796.99 C 517.36 796.93 500.72 797.13 484.08 796.92 C 484.03 790.49 483.96 784.07 483.60 777.65 C 484.66 772.52 486.48 767.57 487.61 762.45 C 491.72 745.64 493.16 728.35 495.30 711.22 C 496.42 703.53 495.45 695.77 495.41 688.05 C 500.97 687.97 506.53 687.97 512.09 688.01 C 512.28 688.54 512.66 689.60 512.85 690.13 C 514.46 695.13 516.34 700.03 518.11 704.98 C 519.03 699.32 519.88 693.67 520.64 688.00 C 520.65 687.89 520.68 687.69 520.70 687.59 C 525.08 688.05 529.50 688.13 533.91 687.94 C 534.05 681.95 534.02 675.95 534.05 669.96 Z" id="path3425"/>
  <path fill="#438dff" d=" M 550.41 687.57 C 550.67 687.85 550.94 688.13 551.22 688.42 C 561.80 699.61 572.35 710.85 582.89 722.09 C 584.69 724.00 586.62 725.81 588.84 727.25 C 590.16 748.78 591.73 770.32 592.48 791.89 C 592.41 793.62 592.29 795.36 592.18 797.11 C 572.79 796.92 553.39 797.02 534.00 796.99 C 534.00 776.65 533.99 756.32 533.99 735.98 C 534.16 720.08 533.67 704.16 534.25 688.27 C 539.64 688.04 545.03 687.95 550.41 687.57 Z" id="path3427"/>
  <path fill="#eaffff" d=" M 512.40 688.05 C 515.15 688.01 517.89 688.00 520.64 688.00 C 519.88 693.67 519.03 699.32 518.11 704.98 C 516.34 700.03 514.46 695.13 512.85 690.13 C 512.74 689.61 512.52 688.57 512.40 688.05 Z" id="path3429"/>
  <path fill="#83c8ff" d=" M 551.22 688.42 C 564.44 687.54 577.71 688.15 590.95 688.06 C 591.06 701.54 591.05 715.02 590.89 728.50 C 590.38 728.19 589.35 727.56 588.84 727.25 C 586.62 725.81 584.69 724.00 582.89 722.09 C 572.35 710.85 561.80 699.61 551.22 688.42 Z" id="path3431"/>
  <path fill="#4f88ff" d=" M 476.31 800.05 C 478.93 792.65 480.78 784.98 483.60 777.65 C 483.96 784.07 484.03 790.49 484.08 796.92 C 500.72 797.13 517.36 796.93 534.00 796.99 C 534.00 810.99 534.03 824.99 533.99 838.99 C 523.89 840.90 513.23 844.17 503.08 840.87 C 493.41 837.30 487.66 828.09 482.08 819.99 C 479.56 815.96 476.55 812.22 474.42 807.97 C 473.09 805.16 475.47 802.60 476.31 800.05 Z" id="path3433"/>
  <path fill="#5b9cff" d=" M 592.48 791.89 C 593.38 808.31 592.64 824.79 590.96 841.14 C 590.91 843.17 589.83 845.16 587.93 846.02 C 582.38 848.68 577.94 853.69 571.61 854.60 C 565.77 855.60 560.50 852.20 555.99 848.95 C 550.90 845.21 546.21 840.96 541.26 837.04 C 538.87 837.81 536.45 838.47 533.99 838.99 C 534.03 824.99 534.00 810.99 534.00 796.99 C 553.39 797.02 572.79 796.92 592.18 797.11 C 592.29 795.36 592.41 793.62 592.48 791.89 Z" id="path3435"/>
</svg>