<?xml version="1.0" encoding="UTF-8"?>
<svg version="1.1" viewBox="0 0 320 320" xmlns="http://www.w3.org/2000/svg" xmlns:cc="http://creativecommons.org/ns#" xmlns:dc="http://purl.org/dc/elements/1.1/" xmlns:rdf="http://www.w3.org/1999/02/22-rdf-syntax-ns#">
<metadata>
<rdf:RDF>
<cc:Work rdf:about="">
<dc:format>image/svg+xml</dc:format>
<dc:type rdf:resource="http://purl.org/dc/dcmitype/StillImage"/>
<dc:title/>
</cc:Work>
</rdf:RDF>
</metadata>
<g transform="translate(0 -732.36)">
<path transform="translate(0 732.36)" d="m160 10-150 150 7.7188 7.7188c4.4892 4.4464 8.2024 7.3102 21-3.5l13.281-11.219c18.409-47.188 49.533-64.815 80.938-65.344 29.501-0.49665 59.254 14.102 78.969 33.438 7.9414 5.8665 21.382 5.9411 32.219 8.75 9.1938 1.8695 12.221 3.6556 12.438 5.4375 0.0581 4.2612-25.328 4.487-38 6.7188-30.598 10.688-38.577 26.334-47.094 41.875-4.6692 12.187-5.7192 23.758-7.125 35.406-0.80322 40.536-12.344 56.719-12.344 56.719l-6.2188 6.7812c-4.7812 4.2188-3.7812 8.2188 4 17l10.219 10.219 150-150zm-7.3125 102.38c-6.3356 4e-3 -11.756 4.8106-12.406 11.25-0.69339 6.8686 4.3188 12.994 11.188 13.688s12.994-4.2876 13.688-11.156-4.3188-12.994-11.188-13.688c-0.42929-0.0433-0.85888-0.094-1.2812-0.0937z" fill="#428bca"/>
</g>
</svg>
